<svg width="36" height="31" viewBox="0 0 36 31" fill="none" xmlns="http://www.w3.org/2000/svg">
<path d="M10.1284 12.1786C8.88398 12.1786 7.87865 13.1681 7.87865 14.3929C7.87865 15.6176 8.88398 16.6071 10.1284 16.6071C11.3727 16.6071 12.3781 15.6176 12.3781 14.3929C12.3781 13.1681 11.3727 12.1786 10.1284 12.1786ZM18.0023 12.1786C16.758 12.1786 15.7526 13.1681 15.7526 14.3929C15.7526 15.6176 16.758 16.6071 18.0023 16.6071C19.2467 16.6071 20.252 15.6176 20.252 14.3929C20.252 13.1681 19.2467 12.1786 18.0023 12.1786ZM25.8763 12.1786C24.6319 12.1786 23.6266 13.1681 23.6266 14.3929C23.6266 15.6176 24.6319 16.6071 25.8763 16.6071C27.1207 16.6071 28.126 15.6176 28.126 14.3929C28.126 13.1681 27.1207 12.1786 25.8763 12.1786ZM18.0023 0C8.06143 0 0.00466591 6.44219 0.00466591 14.3929C0.00466591 17.6866 1.4037 20.7036 3.72372 23.1324C2.67619 25.8587 0.49679 28.1699 0.461638 28.1975C-0.00236443 28.6819 -0.128911 29.3877 0.138242 29.9967C0.405395 30.6056 1.01703 31 1.69195 31C6.01561 31 9.42532 29.2217 11.4711 27.7962C13.5029 28.4259 15.6964 28.7857 18.0023 28.7857C27.9432 28.7857 36 22.3435 36 14.3929C36 6.44219 27.9432 0 18.0023 0ZM18.0023 25.4643C16.1252 25.4643 14.2692 25.1806 12.4905 24.627L10.8947 24.1288L9.52374 25.0837C8.51841 25.7826 7.14046 26.5645 5.4813 27.0904C5.99451 26.2531 6.49367 25.3121 6.88034 24.3087L7.62555 22.3643L6.1773 20.8558C4.90481 19.5203 3.37923 17.3129 3.37923 14.3929C3.37923 8.28973 9.93854 3.32143 18.0023 3.32143C26.0661 3.32143 32.6254 8.28973 32.6254 14.3929C32.6254 20.496 26.0661 25.4643 18.0023 25.4643Z" fill="white"/>
</svg>
