<?xml version="1.0" encoding="UTF-8"?>
<svg id="_圖層_1" data-name="圖層_1" xmlns="http://www.w3.org/2000/svg" version="1.1" viewBox="0 0 300 300">
  <!-- Generator: Adobe Illustrator 29.8.2, SVG Export Plug-In . SVG Version: 2.1.1 Build 3)  -->
  <defs>
    <style>
      .st0 {
        fill: #18404f;
      }
    </style>
  </defs>
  <path class="st0" d="M150,0C67.16,0,0,67.16,0,150s67.16,150,150,150,150-67.16,150-150S232.84,0,150,0ZM18.7,150c0-35.07,13.66-68.04,38.46-92.84,24.8-24.8,57.77-38.46,92.84-38.46,24.82,0,48.58,6.85,69.15,19.64-7.94-1.05-17.51,1.4-25.83,7.68-18.14,13.47-22.44,38.41-22.44,68.06v23.93h-55.21v-40.28c0-15.65,1.55-19.02,14.76-20.89v-7.12h-55.24v6.89c15.07,1.74,16.92,5.01,16.92,21.11v74.31c0,18.52-.27,31.31-2.71,41.9-2.93,12.58-14.27,34.09-33.88,27.24-23.76-24.6-36.81-56.87-36.81-91.16ZM242.84,242.84c-24.8,24.8-57.77,38.46-92.84,38.46-29.47,0-57.45-9.65-80.35-27.44,7.46.35,16.03-2.14,23.57-7.73,18.14-13.23,22.44-37.72,22.44-66.82v-20.18h55.21v34.8h.13v5.21c0,16.39-1.46,18.59-14.89,20.34v6.21h93.39s1.84-16.48,1.1-35.78h-2.19c-7.44,0-2.98,21.99-30.04,21.99h-7.02c-14.29,0-15.75-3.64-15.75-14.73v-75.68c0-18.86-.33-31.77,1.54-42.67,3.92-22.89,18.99-36.77,36.12-30.36,3.31,2.73,6.51,5.63,9.59,8.7,24.8,24.8,38.46,57.77,38.46,92.84s-13.66,68.04-38.46,92.84Z"/>
</svg>